<?xml version="1.0" encoding="UTF-8"?>
<svg version="1.1" xmlns="http://www.w3.org/2000/svg" width="512" height="512">
<path d="M0 0 C1.00666718 -0.0071553 2.01333435 -0.01431061 3.05050659 -0.02168274 C4.15912048 -0.02437164 5.26773438 -0.02706055 6.40994263 -0.02983093 C7.57423798 -0.03640213 8.73853333 -0.04297333 9.93811035 -0.04974365 C13.80388446 -0.06950914 17.6696197 -0.0811453 21.53543091 -0.09111023 C22.85251163 -0.09518576 24.16959236 -0.09926128 25.52658463 -0.10346031 C31.77576881 -0.122511 38.02494118 -0.1367431 44.27414882 -0.14507228 C51.49055166 -0.15484918 58.70664814 -0.18118056 65.922943 -0.22157317 C71.49922316 -0.25171626 77.07541541 -0.26653936 82.65177548 -0.26985329 C85.98315548 -0.27220565 89.3141328 -0.28315484 92.64544296 -0.30631447 C96.36146479 -0.33054672 100.07667922 -0.32976979 103.79275513 -0.32279968 C104.89732056 -0.33560974 106.00188599 -0.3484198 107.1399231 -0.36161804 C108.65838333 -0.35120232 108.65838333 -0.35120232 110.20751953 -0.34057617 C111.08615599 -0.34296453 111.96479244 -0.34535288 112.87005424 -0.34781361 C116.01146713 0.31087162 117.20404125 1.71946618 119.23074341 4.14717102 C120.78098805 7.2476603 120.52066356 9.7261132 120.23074341 13.14717102 C118.43511936 15.90046123 117.17819419 17.67344563 114.23074341 19.14717102 C112.39916515 19.13779068 112.39916515 19.13779068 110.13288879 18.94874573 C109.27276184 18.88194107 108.41263489 18.81513641 107.52644348 18.74630737 C106.10522942 18.6300425 106.10522942 18.6300425 104.65530396 18.51142883 C94.24064055 17.72616916 83.83266061 17.22746375 73.39471722 16.87440872 C66.01770698 16.61244298 58.69701665 16.18130878 51.34941101 15.46531677 C32.85179716 14.18891679 23.10043723 16.52345443 3.23074341 20.14717102 C-14.25925659 37.63717102 -31.74925659 55.12717102 -49.76925659 73.14717102 C96.75074341 73.14717102 243.27074341 73.14717102 394.23074341 73.14717102 C355.04703186 25.41410928 355.04703186 25.41410928 307.14810181 14.09259033 C305.269813 14.19244007 303.39217177 14.31385867 301.51863098 14.48054314 C295.53711625 14.94696521 289.57926032 15.02798176 283.5819397 15.08200073 C274.13942621 15.21198212 264.72977856 15.605865 255.30066347 16.11094671 C243.48747207 16.73047062 231.66953606 16.99933094 219.84402466 17.26631165 C215.6844067 17.36218891 211.52486442 17.4606761 207.36538696 17.56246948 C206.35933836 17.58707451 205.35328975 17.61167955 204.31675482 17.63703018 C197.42180655 17.81521736 190.53410268 18.08312333 183.64395142 18.39337158 C181.81327244 18.47104258 179.98257917 18.54837769 178.15187073 18.62535095 C174.76782345 18.76771989 171.38647549 18.93607526 168.00444031 19.11956787 C166.50256918 19.18397286 165.00065351 19.24735057 163.49868774 19.30950928 C162.20788048 19.37465949 160.91707321 19.4398097 159.58715057 19.50693417 C155.58642079 19.07810803 154.03876248 17.96398125 151.23074341 15.14717102 C149.71855671 12.12279763 150.05810972 9.48475568 150.23074341 6.14717102 C151.41842196 2.76685514 152.12899566 2.21500285 155.23074341 0.14717102 C157.82304932 -0.05677668 160.30930657 -0.14412139 162.90266418 -0.14044189 C164.08635604 -0.15041361 164.08635604 -0.15041361 165.29396087 -0.16058677 C167.94699503 -0.18032354 170.59986071 -0.1856641 173.25296021 -0.19096375 C175.15173283 -0.20185576 177.05050112 -0.21352712 178.94926453 -0.22592163 C184.11473944 -0.25646719 189.28016974 -0.27345512 194.44571662 -0.28613782 C197.67287677 -0.29421749 200.90002403 -0.30439794 204.12717628 -0.31515312 C214.22390693 -0.3478849 224.32060638 -0.37177991 234.4173829 -0.38396698 C246.07289628 -0.3982185 257.7278038 -0.44207624 269.38311642 -0.51146847 C278.3913039 -0.56325098 287.39931911 -0.58814037 296.40765315 -0.59278911 C301.78822224 -0.59618769 307.16817909 -0.6110524 312.54858971 -0.6540699 C317.61233021 -0.69384512 322.67503177 -0.70021559 327.73888206 -0.68116951 C329.59483505 -0.67990411 331.45084133 -0.69056362 333.30664444 -0.71418381 C349.07214162 -0.90334772 349.07214162 -0.90334772 353.94018555 3.24952698 C355.07085307 4.51942281 356.16918261 5.81896429 357.23074341 7.14717102 C358.42249762 8.32192491 359.6269944 9.48388392 360.84352112 10.63296509 C362.08114375 11.86475709 363.31614823 13.09918385 364.54885864 14.33589172 C365.2311705 15.01645126 365.91348236 15.6970108 366.61647034 16.39819336 C368.84326022 18.62062547 371.06642411 20.84664301 373.28933716 23.07295227 C374.84477893 24.62771972 376.40036906 26.18233876 377.95610046 27.73681641 C381.20121179 30.98045941 384.44452216 34.22588954 387.68655396 37.47261047 C391.84841985 41.64020179 396.0147976 45.80324924 400.18250942 49.96499348 C403.38837578 53.16725516 406.59186761 56.37188371 409.79463387 59.57724571 C411.33094893 61.11422883 412.86800985 62.65046677 414.40582085 64.18595314 C416.54576749 66.32337175 418.68250216 68.46394942 420.81838989 70.60542297 C421.45677795 71.2417868 422.09516602 71.87815063 422.75289917 72.53379822 C426.7914867 76.59206098 428.34517643 78.33286553 428.40774536 84.00141907 C428.4205806 85.01395248 428.43341583 86.0264859 428.44664001 87.06970215 C428.45772041 88.72260002 428.45772041 88.72260002 428.46902466 90.40888977 C428.47709641 91.54687515 428.48516815 92.68486053 428.4934845 93.85733032 C428.50734472 96.27757742 428.51805815 98.69784423 428.52590942 101.11811829 C428.54296362 104.7746823 428.5868135 108.43030421 428.63113403 112.08662415 C428.82692754 140.11392454 428.82692754 140.11392454 420.63304138 152.83575439 C415.88714617 161.57122013 416.27001587 169.99408824 416.37600708 179.73530579 C416.3713848 181.68145685 416.36365832 183.62760262 416.35308838 185.57373047 C416.3330117 190.82133693 416.35526353 196.06799804 416.38491988 201.31552625 C416.40810516 206.81763414 416.3899704 212.31960019 416.37583923 217.82171631 C416.35496404 228.22893675 416.36777432 238.63580788 416.39431125 249.04300493 C416.44056357 267.70565274 416.4246711 286.36833053 416.40326101 305.03100628 C416.39702962 311.5789497 416.40411372 318.12670894 416.42247903 324.67462838 C416.43246003 328.7381111 416.43470916 332.80157464 416.43530655 336.86506844 C416.43741892 338.75171124 416.44301821 340.63835378 416.45232201 342.52497482 C416.46464898 345.09566224 416.46484534 347.66607701 416.46211243 350.23678589 C416.47217679 351.36161915 416.47217679 351.36161915 416.48244447 352.50917631 C416.46562679 356.19286662 416.42389784 359.09854406 414.23074341 362.14717102 C411.06334899 364.2587673 410.30975474 364.39851807 406.69011116 364.40723324 C405.75367149 364.41429883 404.81723183 364.42136442 403.8524152 364.42864412 C402.82179018 364.42622904 401.79116516 364.42381395 400.72930908 364.42132568 C399.6358816 364.42656236 398.54245413 364.43179904 397.41589248 364.43719441 C393.73320866 364.45225764 390.05066301 364.45290095 386.36795044 364.4535675 C383.7352576 364.4611847 381.102567 364.46961143 378.46987915 364.47879028 C371.30466097 364.50165355 364.13947237 364.50956219 356.97422266 364.51461673 C352.5014861 364.51787196 348.02875815 364.52439335 343.55602646 364.53161812 C331.17562957 364.55118514 318.7952407 364.56758896 306.41482735 364.57049465 C305.6223707 364.57068222 304.82991406 364.57086979 304.01344358 364.57106305 C302.40689969 364.5714293 300.8003558 364.571793 299.19381191 364.57215416 C298.39630692 364.57233697 297.59880193 364.57251978 296.77713013 364.57270813 C295.97865342 364.57288868 295.18017672 364.57306923 294.35750376 364.57325525 C281.41501169 364.57679802 268.4726859 364.60382627 255.53025152 364.64120602 C242.2468277 364.67926407 228.96348643 364.69865194 215.68000686 364.69895416 C208.21998987 364.69953927 200.76017125 364.70806554 193.30020523 364.73695183 C186.9487936 364.76143229 180.59765268 364.76877137 174.24620666 364.7537043 C171.00491149 364.74652158 167.76426405 364.75015718 164.52300644 364.7701149 C161.01024726 364.79042976 157.49888463 364.78010791 153.98614502 364.76190186 C152.95998144 364.77510182 151.93381787 364.78830179 150.87655842 364.80190176 C146.13879294 364.74560816 143.9589446 364.70483413 140.10223198 361.75132847 C138.19265424 359.09417033 137.52619955 357.87414193 137.54324341 354.64717102 C137.51875122 353.91498352 137.49425903 353.18279602 137.46902466 352.42842102 C138.68219212 348.79514 140.90855426 346.84404929 144.23074341 345.14717102 C148.44189117 344.45589674 152.59036187 344.56514899 156.84793091 344.65888977 C158.06022369 344.66596451 159.27251648 344.67303925 160.52154541 344.68032837 C164.38357928 344.7082582 168.24414963 344.77099989 172.10574341 344.83467102 C174.72811827 344.85975545 177.35051591 344.88256836 179.97293091 344.9030304 C186.39269888 344.95808066 192.81161657 345.04169555 199.23074341 345.14717102 C199.22797803 344.49210225 199.22521265 343.83703348 199.22236347 343.16211414 C199.15610337 327.22104433 199.10646274 311.28002244 199.07530689 295.33884907 C199.05983959 287.62980516 199.03875275 279.92085319 199.00442505 272.21186829 C198.97451843 265.49252215 198.95516741 258.7732426 198.94847792 252.05383176 C198.94456778 248.4961038 198.93538144 244.93856632 198.91355324 241.38089943 C198.88938024 237.40882936 198.88877424 233.43694545 198.89016724 229.46479797 C198.87398849 227.69642075 198.87398849 227.69642075 198.85748291 225.89231873 C198.8616069 224.80843369 198.8657309 223.72454865 198.86997986 222.6078186 C198.86721448 221.66851155 198.8644491 220.7292045 198.86159992 219.7614336 C199.46767793 215.46920815 201.12751274 213.00837686 204.52210999 210.35848045 C207.74214208 208.91847192 210.04516803 208.76981137 213.56887817 208.76622009 C214.84747711 208.75776062 216.12607605 208.74930115 217.44342041 208.74058533 C218.85299811 208.74641774 220.26257454 208.75256222 221.67214966 208.75898743 C223.16229639 208.75492063 224.65244011 208.74957814 226.14257812 208.74305725 C230.18388652 208.72939063 234.22496494 208.73467954 238.26627731 208.74419451 C242.49735886 208.7517945 246.72842084 208.74474455 250.95950317 208.74003601 C258.06460095 208.73457945 265.16960515 208.74176745 272.27468872 208.75605774 C280.48688411 208.77238409 288.69885605 208.76709551 296.91104603 208.75057852 C303.96426461 208.73696081 311.01741595 208.73504538 318.07064342 208.74289453 C322.28217926 208.74756949 326.49361009 208.7482008 330.70513916 208.73828506 C334.66474991 208.72961351 338.62407281 208.7356406 342.5836525 208.75296783 C344.03607836 208.75693169 345.48852849 208.75580033 346.94094467 208.74917984 C348.92482381 208.74097114 350.90875594 208.75309452 352.89260864 208.76622009 C354.00240585 208.76735117 355.11220306 208.76848225 356.25563049 208.7696476 C360.55066156 209.31466047 363.04073382 210.91634075 366.02069569 213.99852371 C367.53335058 216.68450196 367.60048333 218.44962429 367.59150696 221.52552795 C367.59769295 223.16191475 367.59769295 223.16191475 367.60400391 224.83135986 C367.59321808 226.02322403 367.58243225 227.2150882 367.57131958 228.44306946 C367.57175766 229.70186417 367.57219574 230.96065887 367.57264709 232.25759888 C367.57350763 235.70572783 367.55587274 239.15354352 367.53492522 242.60159969 C367.51616801 246.20639392 367.51440874 249.81119538 367.510849 253.41603088 C367.5015257 260.24062381 367.47690815 267.06507252 367.44680053 273.88960195 C367.41326532 281.65978043 367.39677273 289.42996581 367.38171422 297.20019865 C367.35035875 313.1826205 367.29534323 329.16484371 367.23074341 345.14717102 C377.13074341 345.14717102 387.03074341 345.14717102 397.23074341 345.14717102 C396.73574341 263.96717102 396.73574341 263.96717102 396.23074341 181.14717102 C390.29074341 184.11717102 390.29074341 184.11717102 384.23074341 187.14717102 C366.47182402 194.05341745 347.65522787 193.89303454 329.91824341 186.83467102 C316.02834983 180.54805697 303.82782697 171.6419905 296.23074341 158.14717102 C293.37663246 160.88812339 290.97444284 163.7321854 288.60574341 166.89717102 C278.4074126 179.6357454 263.2063367 188.00620691 247.23074341 191.14717102 C246.09636841 191.37404602 244.96199341 191.60092102 243.79324341 191.83467102 C224.22829972 193.55089415 205.60610384 189.5174637 189.83621216 177.35810852 C183.57391794 172.04407774 177.22748741 166.41397829 173.23074341 159.14717102 C173.23074341 158.48717102 173.23074341 157.82717102 173.23074341 157.14717102 C172.57074341 157.14717102 171.91074341 157.14717102 171.23074341 157.14717102 C170.98453247 157.87291321 170.73832153 158.5986554 170.48464966 159.34638977 C168.19513475 164.46035298 164.08974341 168.15994475 160.23074341 172.14717102 C159.22527466 173.20871399 159.22527466 173.20871399 158.19949341 174.29170227 C147.34039837 184.87931993 131.26500205 191.23850704 116.23074341 192.14717102 C114.92750122 192.22644836 114.92750122 192.22644836 113.59793091 192.30732727 C93.13706052 192.93479396 74.3625214 185.15203243 59.37918091 171.41279602 C55.52207066 167.34529794 52.36009028 162.78576693 49.23074341 158.14717102 C48.3992981 159.20291321 48.3992981 159.20291321 47.55105591 160.27998352 C33.78358009 177.29231896 18.60001101 187.4733175 -3.20675659 191.83467102 C-20.73549779 193.3722799 -36.63774098 190.22608039 -51.76925659 181.14717102 C-52.09925659 235.26717102 -52.42925659 289.38717102 -52.76925659 345.14717102 C-34.28925659 345.14717102 -15.80925659 345.14717102 3.23074341 345.14717102 C9.07820104 349.82513712 9.07820104 349.82513712 9.60574341 354.39717102 C9.1607693 358.84691213 7.63498843 361.35716567 4.23074341 364.14717102 C0.96768188 364.90234375 0.96768188 364.90234375 -2.77511597 364.90766907 C-3.80291924 364.9210305 -3.80291924 364.9210305 -4.85148621 364.93466187 C-7.10630839 364.95589463 -9.35825611 364.93367134 -11.61300659 364.90888977 C-13.18572277 364.91039292 -14.75843818 364.91382473 -16.33114624 364.9190979 C-19.62323372 364.92342549 -22.91434032 364.90662252 -26.20626831 364.87446594 C-30.4200754 364.83468329 -34.63204369 364.84398631 -38.84590912 364.86870098 C-42.09230548 364.88290298 -45.33827435 364.87278274 -48.5846405 364.85518837 C-50.13792397 364.84935005 -51.6912514 364.85062399 -53.24452209 364.85921288 C-55.41846464 364.86723103 -57.58973861 364.84290275 -59.76339722 364.81001282 C-60.99852051 364.80301865 -62.2336438 364.79602448 -63.50619507 364.78881836 C-67.79739489 363.94499825 -69.07785169 362.56578848 -71.76925659 359.14717102 C-72.24662878 356.26148765 -72.41662596 353.97542799 -72.35466003 351.09875488 C-72.35737118 350.29314489 -72.36008233 349.4875349 -72.36287564 348.65751249 C-72.36608763 345.95969805 -72.33374376 343.26348119 -72.30172729 340.56587219 C-72.2970819 338.63053287 -72.29474898 336.69518681 -72.29455566 334.75984192 C-72.28979357 330.59090066 -72.26986068 326.42240189 -72.2385807 322.25357628 C-72.19036272 315.64954442 -72.18337369 309.04586541 -72.18336487 302.44168091 C-72.17694069 284.84359573 -72.11650762 267.24576878 -72.03043097 249.64790279 C-71.97414117 238.09410187 -71.9410494 226.54074349 -71.95086735 214.98679334 C-71.95456773 208.43496036 -71.9219564 201.88466415 -71.86140978 195.33312547 C-71.83192496 191.23503537 -71.83622171 187.13746787 -71.8494606 183.03931427 C-71.84890033 181.15444416 -71.83486739 179.26951619 -71.80552864 177.38487434 C-71.63528778 165.87675807 -72.99149124 157.56228665 -78.85960102 147.55127811 C-83.74286148 138.8464929 -84.24922886 129.44751315 -84.30831909 119.66279602 C-84.32067596 118.5223584 -84.33303284 117.38192078 -84.34576416 116.20692444 C-84.36518578 113.81710372 -84.37653667 111.42720472 -84.38009644 109.03730774 C-84.39427827 105.3915978 -84.46186826 101.74923322 -84.53097534 98.10420227 C-84.54336479 95.76958194 -84.55258911 93.4349422 -84.55831909 91.10029602 C-84.58503693 90.01992065 -84.61175476 88.93954529 -84.63928223 87.82643127 C-84.63012787 86.80466797 -84.62097351 85.78290466 -84.61154175 84.73017883 C-84.61803741 83.84259888 -84.62453308 82.95501892 -84.63122559 82.0405426 C-83.26005022 77.43791785 -80.06141041 74.54710778 -76.76925659 71.14717102 C-76.19010498 70.54274862 -75.61095337 69.93832623 -75.01425171 69.315588 C-73.21999705 67.46907954 -71.40404217 65.64666787 -69.58053589 63.82905579 C-68.89997635 63.14674393 -68.21941681 62.46443207 -67.51823425 61.76144409 C-65.29580214 59.53465421 -63.0697846 57.31149032 -60.84347534 55.08857727 C-59.28870789 53.5331355 -57.73408885 51.97754537 -56.17961121 50.42181396 C-52.9359682 47.17670264 -49.69053807 43.93339226 -46.44381714 40.69136047 C-42.27622582 36.52949457 -38.11317838 32.36311683 -33.95143414 28.19540501 C-30.74917245 24.98953865 -27.54454391 21.78604682 -24.3391819 18.58328056 C-22.80219879 17.0469655 -21.26596084 15.50990458 -19.73047447 13.97209358 C-17.59305586 11.83214694 -15.4524782 9.69541227 -13.31100464 7.55952454 C-12.35645889 6.60194244 -12.35645889 6.60194244 -11.38262939 5.62501526 C-7.35652939 1.61843456 -5.62704659 0.02739214 0 0 Z M-64.76925659 93.14717102 C-65.9476527 129.55323513 -65.9476527 129.55323513 -49.11300659 157.92842102 C-37.89181143 168.55115244 -24.15757468 172.71025837 -8.97238159 172.42060852 C3.71859523 171.8385065 17.05012622 165.53843078 25.64480591 156.14717102 C34.38843108 145.12072745 38.30352061 134.28384805 39.83621216 120.43232727 C40.48226703 115.05280106 40.48226703 115.05280106 41.23074341 113.14717102 C43.94966904 112.24086248 45.84418328 111.92515524 48.66824341 111.83467102 C49.81099731 111.7785968 49.81099731 111.7785968 50.97683716 111.72138977 C54.28671287 112.34665225 55.28219062 113.40051818 57.23074341 116.14717102 C57.95423825 119.03164571 58.19266073 121.94197188 58.48074341 124.89717102 C60.29106975 139.04951955 66.33260215 151.78640495 77.46902466 160.99873352 C89.97608331 170.37404064 102.9246946 173.2073467 118.23074341 172.14717102 C133.44797347 169.74345433 145.67705618 160.93881305 154.69949341 148.63935852 C159.94822042 140.09678752 161.82347133 131.27479103 162.67605591 121.45967102 C163.257349 117.9882869 164.15124447 115.96121934 166.23074341 113.14717102 C169.36106576 111.58200984 172.82147424 111.60683402 176.23074341 112.14717102 C178.42214966 113.28779602 178.42214966 113.28779602 180.23074341 115.14717102 C180.95339966 117.89717102 180.95339966 117.89717102 181.29324341 121.14717102 C183.56103743 138.76167456 189.81530368 151.35409537 203.48074341 162.95967102 C214.76409214 171.36258742 228.54702066 173.33663721 242.23074341 172.14717102 C255.6813855 169.5830508 267.73345912 162.51645802 275.85574341 151.45967102 C282.01874515 142.11843968 284.8587091 133.76930691 286.06765747 122.69624329 C286.5202228 118.99360802 286.84702187 116.68870011 289.03543091 113.60029602 C291.55522598 111.93238896 292.80342365 111.68796244 295.79324341 111.83467102 C296.55765747 111.85916321 297.32207153 111.8836554 298.10964966 111.90888977 C300.23074341 112.14717102 300.23074341 112.14717102 303.23074341 113.14717102 C303.31525757 113.77059387 303.39977173 114.39401672 303.48684692 115.03633118 C306.05482283 133.28964522 309.63056656 148.53611908 324.23074341 161.14717102 C336.57256241 170.15177392 350.03738758 173.81229953 365.23074341 172.14717102 C380.08417505 169.14745518 392.61423109 161.47315098 401.10574341 148.77217102 C411.92026187 130.6119419 409.23074341 115.68926287 409.23074341 93.14717102 C252.81074341 93.14717102 96.39074341 93.14717102 -64.76925659 93.14717102 Z M219.23074341 229.14717102 C219.23074341 267.42717102 219.23074341 305.70717102 219.23074341 345.14717102 C237.05074341 345.14717102 254.87074341 345.14717102 273.23074341 345.14717102 C273.23074341 306.86717102 273.23074341 268.58717102 273.23074341 229.14717102 C255.41074341 229.14717102 237.59074341 229.14717102 219.23074341 229.14717102 Z M293.23074341 229.14717102 C293.23074341 267.42717102 293.23074341 305.70717102 293.23074341 345.14717102 C311.05074341 345.14717102 328.87074341 345.14717102 347.23074341 345.14717102 C347.23074341 306.86717102 347.23074341 268.58717102 347.23074341 229.14717102 C329.41074341 229.14717102 311.59074341 229.14717102 293.23074341 229.14717102 Z " fill="currentColor" transform="translate(83.76925659179688,73.85282897949219)"/>
<path d="M0 0 C2.01930038 -0.00969885 4.03757924 -0.04073319 6.05664062 -0.07226562 C7.33539063 -0.07742188 8.61414063 -0.08257812 9.93164062 -0.08789062 C11.68613525 -0.10190918 11.68613525 -0.10190918 13.47607422 -0.11621094 C17.09744182 0.28943558 18.84244074 0.93692498 21.65820312 3.24023438 C25.16205667 8.46995127 25.96568806 14.57952288 27.13867188 20.65820312 C27.35638748 21.75240067 27.57410309 22.84659821 27.79841614 23.97395325 C28.25532928 26.27862837 28.70810142 28.58412787 29.15698242 30.89038086 C29.84564907 34.42745675 30.54669659 37.96190204 31.25 41.49609375 C31.69277873 43.73748781 32.13486027 45.97901974 32.57617188 48.22070312 C32.7854985 49.28008591 32.99482513 50.33946869 33.210495 51.43095398 C33.40101944 52.41239883 33.59154388 53.39384369 33.7878418 54.4050293 C33.95644211 55.26851486 34.12504242 56.13200043 34.29875183 57.02165222 C34.65820312 59.24023438 34.65820312 59.24023438 34.65820312 62.24023438 C62.04820312 62.24023438 89.43820313 62.24023438 117.65820312 62.24023438 C119.63820312 53.33023438 119.63820312 53.33023438 121.65820312 44.24023438 C123.62695313 36.22460937 123.62695313 36.22460937 124.65820312 32.24023438 C123.70464432 32.24911682 122.75108551 32.25799927 121.76863098 32.26715088 C112.77869156 32.34826609 103.78882647 32.4082138 94.79860401 32.44748306 C90.17669729 32.46835065 85.55508619 32.49665301 80.93334961 32.54199219 C76.47240484 32.58547973 72.01174427 32.60937772 67.55060387 32.61974335 C65.84933689 32.62712952 64.14808533 32.64155314 62.44693947 32.6631546 C60.06234859 32.69222807 57.67892929 32.69618886 55.29418945 32.69433594 C54.59215897 32.70871704 53.89012848 32.72309814 53.16682434 32.73791504 C48.39886812 32.69787406 46.00725381 31.6075425 42.65820312 28.24023438 C41.14601643 25.21586098 41.48556944 22.57781904 41.65820312 19.24023438 C42.84588168 15.85991849 43.55645538 15.30806621 46.65820312 13.24023438 C49.68224975 13.03464922 52.61495937 12.94655422 55.64013672 12.94970703 C56.55913254 12.94298981 57.47812836 12.93627258 58.42497253 12.92935181 C61.46891661 12.91032349 64.51264075 12.90644514 67.55664062 12.90429688 C69.67029919 12.89787219 71.78395685 12.89114409 73.89761353 12.88412476 C78.33117739 12.87213981 82.76466326 12.86844517 87.19824219 12.86962891 C92.88023328 12.86983214 98.56172444 12.84253102 104.24359703 12.80808449 C108.61020201 12.78584982 112.97668603 12.78179032 117.34334183 12.78284836 C119.43812406 12.78048718 121.53290937 12.77163472 123.62763596 12.75618362 C126.55794041 12.73659382 129.48715862 12.74233434 132.41748047 12.75439453 C133.28311111 12.74315552 134.14874176 12.7319165 135.04060364 12.72033691 C139.04898135 12.76227097 141.16789685 12.94594496 144.67492676 15.05091858 C147.54333018 18.21731587 147.84921931 21.12659848 147.65820312 25.24023438 C147.05401489 29.23072224 146.09809417 33.09672563 145.08789062 37.00195312 C144.67073288 38.66518364 144.67073288 38.66518364 144.24514771 40.36201477 C143.65525886 42.69603675 143.05809724 45.02823131 142.45410156 47.35864258 C141.53492533 50.92105967 140.64999526 54.4908233 139.76757812 58.0625 C139.1888974 60.3345071 138.60823503 62.60601058 138.02539062 64.87695312 C137.76370087 65.94161301 137.50201111 67.00627289 137.23239136 68.10319519 C136.83771164 69.59548393 136.83771164 69.59548393 136.43505859 71.11791992 C136.21220184 71.98869675 135.98934509 72.85947357 135.75973511 73.75663757 C134.20298046 77.26661361 132.78112064 78.9554088 129.65820312 81.24023438 C126.21968021 81.96430987 122.8510655 81.91336382 119.34765625 81.87133789 C118.31132553 81.87849319 117.27499481 81.8856485 116.20726013 81.89302063 C112.78420837 81.90991889 109.36246412 81.89049714 105.93945312 81.86914062 C103.5596099 81.86996921 101.17976673 81.8724282 98.79992676 81.87644958 C93.81321987 81.87930838 88.82696192 81.8645976 83.84033203 81.8371582 C77.44763387 81.80307602 71.0557386 81.80909327 64.66300201 81.82782078 C59.74905708 81.83838825 54.83529902 81.82945509 49.92137146 81.81443596 C47.56425023 81.80925188 45.20710951 81.80973867 42.84999084 81.81598091 C39.55581684 81.8214298 36.26279298 81.80106678 32.96875 81.77368164 C31.50670387 81.78347046 31.50670387 81.78347046 30.01512146 81.79345703 C25.7315857 81.73289262 23.30401921 81.63221814 19.57873535 79.37112427 C17.24777078 76.78484699 16.69641785 75.0093996 16.03320312 71.60351562 C15.80391113 70.48009766 15.57461914 69.35667969 15.33837891 68.19921875 C15.1139209 66.99587891 14.88946289 65.79253906 14.65820312 64.55273438 C14.41183105 63.31716797 14.16545898 62.08160156 13.91162109 60.80859375 C13.40060764 58.23746511 12.89794877 55.664663 12.40332031 53.09033203 C11.68479866 49.37765626 10.93244348 45.67375448 10.16601562 41.97070312 C9.70449685 39.72733305 9.24353401 37.48384851 8.78320312 35.24023438 C8.56792969 34.19134033 8.35265625 33.14244629 8.13085938 32.06176758 C7.93621094 31.08941162 7.7415625 30.11705566 7.54101562 29.11523438 C7.28408936 27.84292969 7.28408936 27.84292969 7.02197266 26.54492188 C6.65820312 24.24023438 6.65820312 24.24023438 6.65820312 20.24023438 C6.07852783 20.25594482 5.49885254 20.27165527 4.90161133 20.2878418 C2.25807573 20.35046228 -0.38530342 20.38930956 -3.02929688 20.42773438 C-3.94130859 20.45287109 -4.85332031 20.47800781 -5.79296875 20.50390625 C-10.79234299 20.55844488 -14.31132928 20.5718709 -18.34179688 17.24023438 C-20.67028734 14.02469992 -20.88636695 11.13002061 -20.34179688 7.24023438 C-15.36453741 -1.01053035 -8.72063091 0.02537526 0 0 Z " fill="currentColor" transform="translate(81.341796875,319.759765625)"/>
<path d="M0 0 C4.09181323 1.70431 6.41163342 4.16489905 8.9375 7.75 C10.52051052 12.59214983 11.00550699 17.10277647 9.30859375 21.9921875 C7.04936026 26.39722017 4.48003196 28.99998573 0 31 C-5.55779102 31.74052985 -10.31315458 31.72293375 -15.5 29.5 C-19.69148655 25.30851345 -21.72647501 21.26634993 -22.4375 15.375 C-21.7478555 10.05488529 -19.99066694 6.64607032 -15.9375 3.1875 C-10.76062112 -0.66762257 -6.35194947 -0.77099525 0 0 Z " fill="currentColor" transform="translate(194,407)"/>
<path d="M0 0 C4.86108919 2.29796944 7.70203056 5.13891081 10 10 C10.77379561 15.29813119 10.67768515 19.56643525 8.375 24.4375 C4.04565669 29.10863357 0.92123974 31.23861982 -5.5 31.5 C-11.92123974 31.23861982 -15.04565669 29.10863357 -19.375 24.4375 C-21.67768515 19.56643525 -21.77379561 15.29813119 -21 10 C-16.66939086 0.83909605 -9.52517725 -1.39115853 0 0 Z " fill="currentColor" transform="translate(132,407)"/>
</svg>
