
<svg version="1.0" xmlns="http://www.w3.org/2000/svg"
 width="492.000000pt" height="507.000000pt" viewBox="0 0 492.000000 507.000000"
>

<g transform="translate(0.000000,507.000000) scale(0.100000,-0.100000)"
fill="currentColor" stroke="none">
<path d="M516 4599 c-102 -24 -207 -116 -249 -219 l-22 -55 -3 -1315 c-2 -958
0 -1331 8 -1375 26 -134 101 -226 230 -281 42 -18 83 -19 715 -24 l670 -5 0
-245 0 -245 -136 -5 c-126 -5 -138 -7 -176 -32 -119 -78 -143 -226 -54 -330
65 -76 72 -78 449 -78 182 0 332 3 332 8 0 4 -13 32 -30 63 -74 142 -80 190
-80 716 l0 443 -794 2 c-765 3 -795 4 -815 22 l-21 19 0 1308 0 1308 22 21
c22 20 24 20 1914 20 1426 0 1899 -3 1919 -12 14 -6 28 -22 31 -35 4 -13 8
-142 9 -286 1 -144 3 -269 4 -278 0 -11 14 -19 39 -24 57 -10 152 -43 189 -65
19 -11 40 -20 46 -20 9 0 11 87 10 362 -3 400 -4 412 -69 500 -41 58 -139 123
-204 137 -65 14 -3875 14 -3934 0z"/>
<path d="M2755 3379 c-132 -45 -232 -146 -264 -269 -9 -34 -11 -344 -9 -1235
l3 -1190 33 -67 c41 -83 99 -142 182 -182 l65 -31 364 -3 c349 -3 363 -3 356
15 -50 119 -49 112 -53 315 l-4 198 -327 2 -326 3 -3 1053 -2 1053 29 30 29
29 775 0 774 0 27 -25 c14 -13 27 -32 28 -42 1 -10 2 -160 2 -333 l1 -315 85
-6 c47 -4 111 -15 143 -26 l57 -20 1 21 c0 12 0 184 0 383 -1 315 -3 368 -18
405 -39 100 -106 172 -202 217 l-56 26 -830 2 c-535 1 -841 -2 -860 -8z"/>
<path d="M3760 2173 c-48 -19 -93 -58 -111 -96 -18 -40 -19 -76 -19 -777 0
-825 -5 -770 74 -835 l38 -30 411 -3 c265 -2 425 1 447 7 44 13 81 45 106 91
18 34 19 67 18 775 0 806 3 768 -56 822 -55 52 -67 53 -495 52 -219 0 -405 -3
-413 -6z m745 -813 l0 -595 -330 0 -330 0 -3 585 c-1 322 0 591 3 598 3 10 75
12 332 10 l328 -3 0 -595z m-276 -706 c43 -36 43 -82 -1 -119 -37 -31 -82 -29
-110 6 -33 39 -18 111 25 129 36 15 54 11 86 -16z"/>
</g>
</svg>
